<?xml version="1.0" encoding="UTF-8" standalone="no"?>
<!-- Created with Inkscape (http://www.inkscape.org/) -->

<svg
   width="160"
   height="90"
   viewBox="0 0 42.333332 23.8125"
   version="1.1"
   id="svg5"
   xml:space="preserve"
   sodipodi:docname="ichthys.svg"
   inkscape:version="1.2.2 (b0a8486541, 2022-12-01)"
   xmlns:inkscape="http://www.inkscape.org/namespaces/inkscape"
   xmlns:sodipodi="http://sodipodi.sourceforge.net/DTD/sodipodi-0.dtd"
   xmlns="http://www.w3.org/2000/svg"
   xmlns:svg="http://www.w3.org/2000/svg"><sodipodi:namedview
     id="namedview6"
     pagecolor="#ffffff"
     bordercolor="#999999"
     borderopacity="1"
     inkscape:showpageshadow="0"
     inkscape:pageopacity="0"
     inkscape:pagecheckerboard="0"
     inkscape:deskcolor="#d1d1d1"
     showgrid="false"
     inkscape:zoom="6.467891"
     inkscape:cx="71.97091"
     inkscape:cy="53.031197"
     inkscape:window-width="1916"
     inkscape:window-height="1011"
     inkscape:window-x="0"
     inkscape:window-y="0"
     inkscape:window-maximized="1"
     inkscape:current-layer="layer1" /><defs
     id="defs2"><inkscape:path-effect
       effect="taper_stroke"
       id="path-effect5056"
       is_visible="true"
       lpeversion="1"
       stroke_width="2.0108493"
       attach_start="0.9"
       end_offset="0.9"
       start_smoothing="0.7"
       end_smoothing="0.7"
       jointype="round"
       start_shape="right"
       end_shape="right"
       miter_limit="100" /></defs><g
     id="layer1"
     style="fill:#000000;fill-opacity:1"><path
       style="fill:#fafffa;fill-rule:nonzero;stroke:none;stroke-width:0.26590625;stroke-linecap:butt;stroke-linejoin:miter;stroke-opacity:1;fill-opacity:1;stroke-dasharray:none"
       d="m 26.036302,17.238167 c 4.561436,-1.933975 8.334793,-4.85147 10.781829,-6.998762 2.178325,-2.0162841 3.81812,-3.8120332 4.919373,-5.3875501 l -5.747437,4.2295095 c -3.46148,2.3979006 -6.953981,4.7157396 -10.735691,6.3042076 -0.741573,0.312996 -1.433693,0.562263 -2.065542,0.737391 C 16.587551,17.952624 9.224084,16.627109 5.7443803,14.21018 2.3628236,11.861422 1.8467429,11.279714 1.8467429,11.279714 l 0,1.117516 c 0,0 0.5160808,-0.581708 3.8976373,-2.930466 C 9.224084,7.0498358 16.587551,5.7243202 23.188834,7.5539813 c 0.631849,0.1751278 1.32397,0.4243946 2.065542,0.7373906 3.785413,1.5911466 7.281616,3.9116631 10.746799,6.3122411 l 0,1e-6 c 1.379163,0.958027 2.739938,1.943127 4.08237,2.953147 v 0 l 10e-7,0 c 0.400501,0.30134 0.798707,0.604396 1.193842,0.910106 0,1e-6 10e-7,1e-6 10e-7,1e-6 0.107423,0.08311 0.214273,0.166144 0.320423,0.249258 h 0 c 0,0 0,0 1e-6,1e-6 0.02757,0.02158 0.05491,0.04303 0.082,0.06436 0.216829,-0.253955 0.434092,-0.507967 0.65135,-0.762347 7.54e-4,-8.83e-4 0.0015,-0.0018 0.0022,-0.0027 -7.19e-4,9.1e-4 -0.0015,0.0018 -0.0022,0.0027 -0.103847,0.121591 -0.539415,0.630512 -0.643262,0.752103 -3e-6,3e-6 -6e-6,6e-6 -8e-6,9e-6 l -2e-6,2e-6 c 0,0 0,0 0,0 -0.0195,-0.03066 -0.03948,-0.06155 -0.0599,-0.09267 l 0,-1e-6 -10e-7,0 0,0 c -0.07683,-0.116193 -0.157163,-0.233495 -0.241056,-0.352307 l 0,0 c -0.282363,-0.399893 -0.599453,-0.811089 -0.952344,-1.235088 l 0,0 0,-10e-7 0,0 c -0.948908,-1.140092 -2.154484,-2.371103 -3.621094,-3.655974 l 0,0 C 34.363243,11.28452 30.59335,8.3696327 26.036302,6.4387771 25.237894,6.1017926 24.459866,5.8196109 23.725928,5.6161873 16.669347,3.6603324 8.6685268,4.9873948 4.5972505,7.8152167 0.86721426,10.406021 0.26485516,11.145319 0.17501493,11.279714 a 1.0054246,1.0054246 0 0 0 0,1.117516 c 0.0898403,0.134395 0.69219927,0.873693 4.42223567,3.464498 4.0712762,2.827821 12.0720964,4.154884 19.1286774,2.199029 0.733938,-0.203424 1.511966,-0.485605 2.310374,-0.82259 z"
       id="path4956"
       sodipodi:nodetypes="csscssc"
       inkscape:path-effect="#path-effect5056"
       inkscape:original-d="m 42.333376,5.661493 c 0,0 -12.047064,9.53761 -18.875995,11.430367 C 16.628449,18.984618 8.9463054,17.658329 5.1708154,15.035954 1.3953253,12.413578 1.0108789,11.838472 1.0108789,11.838472 c 0,0 0.3844464,-0.575106 4.1599365,-3.1974817 3.77549,-2.622375 11.4576336,-3.948664 18.2865656,-2.055906 6.828931,1.892757 18.875995,11.4303667 18.875995,11.4303667" /></g></svg>
