<?xml version="1.0" encoding="UTF-8" standalone="no"?>
<!-- Created with Inkscape (http://www.inkscape.org/) -->

<svg
   width="160"
   height="90"
   viewBox="0 0 42.333332 23.8125"
   version="1.1"
   id="svg5"
   xml:space="preserve"
   sodipodi:docname="ichthys-black.svg"
   inkscape:version="1.2.2 (b0a8486541, 2022-12-01)"
   xmlns:inkscape="http://www.inkscape.org/namespaces/inkscape"
   xmlns:sodipodi="http://sodipodi.sourceforge.net/DTD/sodipodi-0.dtd"
   xmlns="http://www.w3.org/2000/svg"
   xmlns:svg="http://www.w3.org/2000/svg"><sodipodi:namedview
     id="namedview6"
     pagecolor="#ffffff"
     bordercolor="#999999"
     borderopacity="1"
     inkscape:showpageshadow="0"
     inkscape:pageopacity="0"
     inkscape:pagecheckerboard="0"
     inkscape:deskcolor="#d1d1d1"
     showgrid="false"
     inkscape:zoom="6.467891"
     inkscape:cx="98.486508"
     inkscape:cy="55.041125"
     inkscape:window-width="1916"
     inkscape:window-height="1011"
     inkscape:window-x="0"
     inkscape:window-y="0"
     inkscape:window-maximized="1"
     inkscape:current-layer="layer1" /><defs
     id="defs2"><inkscape:path-effect
       effect="taper_stroke"
       id="path-effect5056"
       is_visible="true"
       lpeversion="1"
       stroke_width="4.4854346"
       attach_start="0.9"
       end_offset="0.9"
       start_smoothing="0.7"
       end_smoothing="0.7"
       jointype="round"
       start_shape="right"
       end_shape="right"
       miter_limit="100" /></defs><g
     id="layer1"
     style="fill:#000000;fill-opacity:1"><path
       style="fill:#000000;fill-opacity:1;fill-rule:nonzero;stroke:none;stroke-width:0.297433;stroke-linecap:butt;stroke-linejoin:miter;stroke-dasharray:none;stroke-opacity:1"
       d="m 23.5393,19.633346 c 5.369872,-2.747685 9.525486,-6.460334 12.234014,-9.41376 2.519746,-2.8422203 4.259154,-5.5124792 5.217899,-8.0113696 L 33.842407,7.6198497 C 29.778868,10.570409 25.782698,13.470134 21.504313,15.636103 20.736438,16.027027 20.076369,16.322401 19.516971,16.525611 13.712808,18.634067 10.781213,17.28875 7.5446648,14.342389 4.6640479,11.720045 3.9682887,10.88726 3.9682887,10.88726 l 0,2.03798 c 0,0 0.6957595,-0.832785 3.5763758,-3.4551279 3.2365485,-2.9463629 6.1681435,-4.291679 11.9723075,-2.1832229 0.559398,0.2032104 1.219466,0.4985846 1.987341,0.8895077 4.283842,2.1700531 8.28547,5.0738631 12.354467,8.0285071 l 10e-7,1e-6 c 1.696928,1.2365 3.378205,2.496232 5.045062,3.776415 l 10e-7,1e-6 c 0.502978,0.38631 1.003686,0.773757 1.501523,1.163076 0,0 0,0 1e-6,0 0.135759,0.106167 0.270814,0.212082 0.405061,0.317874 0,0 0,10e-7 10e-7,10e-7 0,0 0,0 0,1e-6 0.03478,0.0274 0.06924,0.05459 0.103379,0.08159 0.348529,-0.420809 0.697267,-0.841846 1.046213,-1.26311 0.1272,-0.153562 0.254463,-0.307127 0.381717,-0.460748 0.001,-0.0012 0.002,-0.0025 0.003,-0.0037 -9.95e-4,0.0013 -0.002,0.0025 -0.003,0.0037 -0.07898,0.09534 -0.301383,0.363694 -0.380359,0.459033 4.18e-4,-5.04e-4 -1.029193,1.241603 -1.028775,1.241099 -7e-6,9e-6 -1.4e-5,1.7e-5 -2.1e-5,2.5e-5 l 0,0 c -0.01655,-0.04883 -0.03377,-0.09795 -0.05163,-0.147384 0,0 0,0 0,0 l 0,0 C 40.813134,21.1885 40.740132,21.003035 40.662069,20.816137 l 0,0 c -0.261014,-0.62495 -0.572972,-1.259919 -0.935862,-1.905554 l 0,0 -1e-6,-10e-7 0,0 c -0.961966,-1.71142 -2.279141,-3.496085 -3.960165,-5.323105 l 0,0 C 33.053379,10.63086 28.902543,6.9219684 23.5393,4.1791539 22.672239,3.737735 21.823508,3.3525551 21.048459,3.0710061 13.508142,0.33186465 8.6663365,2.3833458 4.5251651,6.153224 0.88479949,9.4671983 0.18138822,10.477846 -0.02742966,10.88726 a 2.2427173,2.2427173 0 0 0 0,2.03798 c 0.20881802,0.409414 0.91222887,1.420061 4.55259516,4.734037 4.1411712,3.769877 8.9829765,5.821358 16.5232935,3.082217 0.775049,-0.281549 1.62378,-0.666729 2.490841,-1.108148 z"
       id="path4956"
       sodipodi:nodetypes="csscssc"
       inkscape:path-effect="#path-effect5056"
       inkscape:original-d="m 42.344767,3.9962294 c 0,0 -15.389813,12.2135246 -22.062052,14.6373236 C 13.610475,21.057351 9.7237748,19.358952 6.0349148,16.000833 2.3460546,12.642711 1.9704295,11.90625 1.9704295,11.90625 c 0,0 0.3756251,-0.736461 4.0644853,-4.094582 C 9.7237748,4.4535475 13.610475,2.7551489 20.282715,5.1789476 26.954954,7.6027451 42.344767,19.81627 42.344767,19.81627" /></g></svg>
