<?xml version="1.0" encoding="UTF-8" standalone="no"?>
<!-- Created with Inkscape (http://www.inkscape.org/) -->

<svg
   width="400"
   height="300"
   viewBox="0 0 105.83334 79.375"
   version="1.1"
   id="svg5"
   inkscape:version="1.2.2 (b0a8486541, 2022-12-01)"
   sodipodi:docname="tomb.svg"
   xmlns:inkscape="http://www.inkscape.org/namespaces/inkscape"
   xmlns:sodipodi="http://sodipodi.sourceforge.net/DTD/sodipodi-0.dtd"
   xmlns="http://www.w3.org/2000/svg"
   xmlns:svg="http://www.w3.org/2000/svg">
  <sodipodi:namedview
     id="namedview7"
     pagecolor="#ffffff"
     bordercolor="#999999"
     borderopacity="1"
     inkscape:showpageshadow="0"
     inkscape:pageopacity="0"
     inkscape:pagecheckerboard="0"
     inkscape:deskcolor="#d1d1d1"
     inkscape:document-units="px"
     showgrid="false"
     inkscape:zoom="2.0425"
     inkscape:cx="104.52876"
     inkscape:cy="150.79559"
     inkscape:window-width="1916"
     inkscape:window-height="957"
     inkscape:window-x="0"
     inkscape:window-y="0"
     inkscape:window-maximized="1"
     inkscape:current-layer="layer1" />
  <defs
     id="defs2">
    <inkscape:path-effect
       effect="taper_stroke"
       id="path-effect1830"
       is_visible="true"
       lpeversion="1"
       stroke_width="1.5"
       attach_start="0.99999"
       end_offset="1e-05"
       start_smoothing="1"
       end_smoothing="0.7"
       jointype="extrapolated"
       start_shape="center"
       end_shape="center"
       miter_limit="100" />
    <inkscape:path-effect
       effect="taper_stroke"
       id="path-effect1828"
       is_visible="true"
       lpeversion="1"
       stroke_width="3"
       attach_start="0.99999"
       end_offset="1e-05"
       start_smoothing="0.1"
       end_smoothing="0.9"
       jointype="extrapolated"
       start_shape="left"
       end_shape="right"
       miter_limit="100" />
    <inkscape:path-effect
       effect="taper_stroke"
       id="path-effect1346"
       is_visible="true"
       lpeversion="1"
       stroke_width="0.26458299"
       attach_start="0.2"
       end_offset="0.2"
       start_smoothing="0.5"
       end_smoothing="0.5"
       jointype="extrapolated"
       start_shape="center"
       end_shape="center"
       miter_limit="100" />
  </defs>
  <g
     inkscape:label="Layer 1"
     inkscape:groupmode="layer"
     id="layer1">
    <path
       id="path142"
       style="fill:#999999;stroke:none;stroke-width:0.27755px;stroke-linecap:butt;stroke-linejoin:miter;stroke-opacity:1"
       d="M 60.555479 13.229684 C 59.887592 13.226022 59.21756 13.251207 58.548883 13.305648 C 53.016106 13.93052 47.912826 15.641543 43.101763 18.801954 C 38.830973 22.622726 37.707011 29.267988 32.633668 32.37787 C 24.983561 35.882669 20.08766 43.090135 16.348873 50.266184 C 12.046149 53.523116 5.7619386 56.11191 3.7558432 61.297552 C 0.96838083 68.502986 11.896431 64.526951 16.542143 66.115863 C 21.303681 66.387178 26.21869 64.698698 30.767115 65.659043 C 33.730435 65.856131 36.707122 65.981755 39.687501 66.02698 L 39.687501 39.687501 L 59.531252 39.687501 L 59.531252 64.945392 C 66.26809 63.792436 73.063386 64.771876 79.85456 64.557819 C 87.188644 63.674174 98.822684 69.578553 102.05682 62.631838 C 104.54185 57.294162 96.490428 52.508346 93.510057 47.366619 C 91.008988 42.668754 86.995754 38.315237 85.997854 33.153533 C 83.55229 28.531457 78.264503 26.321803 76.486807 21.280872 C 73.282205 16.005967 67.011717 13.265078 60.555479 13.229684 z " />
    <circle
       style="fill:#666666;stroke:none;stroke-width:0.264583;stroke-linecap:round;stroke-linejoin:round"
       id="path534"
       cx="49.609375"
       cy="52.916668"
       r="17.859375" />
    <path
       style="fill:#999999;fill-rule:nonzero;stroke:none;stroke-width:0.79375;stroke-linecap:butt;stroke-linejoin:miter;stroke-dasharray:none;stroke-opacity:1"
       d="m 43.504761,40.372762 c -2.536773,0.473065 -4.118211,2.286109 -4.718377,3.089014 -1.461131,2.43061 -1.155236,2.639779 -1.155236,2.639779 0,0 0.305238,0.208733 2.077418,-1.906132 0.627411,-0.587263 2.228525,-2.084682 4.044098,-2.343288 l -0.123811,-0.738851 c 7.8e-5,-1.3e-5 -2.9e-5,-8.54e-4 -2.9e-5,-8.54e-4 0,0 -1.73e-4,-8.3e-4 -2.51e-4,-8.17e-4 z"
       id="path667"
       inkscape:path-effect="#path-effect1830"
       inkscape:original-d="m 37.631069,46.101705 c 0,0 2.283124,-4.366882 5.997755,-4.989275"
       inkscape:transform-center-x="8.9307916"
       inkscape:transform-center-y="-9.6766734" />
  </g>
</svg>
